<svg width="43" height="53" viewBox="0 0 43 53" fill="none" xmlns="http://www.w3.org/2000/svg">
<path d="M2 50.5V0H21.5H41V50.5L22.5 43.5L2 50.5Z" fill="#1A1A1A" fill-opacity="0.7"/>
<path d="M1 1.19209e-07V52L22.5513 44.5149L42 52V0" stroke="#A3A3A3" stroke-opacity="0.4"/>
<path d="M27 23H22V28C22 28.55 21.55 29 21 29C20.45 29 20 28.55 20 28V23H15C14.45 23 14 22.55 14 22C14 21.45 14.45 21 15 21H20V16C20 15.45 20.45 15 21 15C21.55 15 22 15.45 22 16V21H27C27.55 21 28 21.45 28 22C28 22.55 27.55 23 27 23Z" fill="white"/>
</svg>
